<svg xmlns="http://www.w3.org/2000/svg" viewBox="0 0 200 240" fill="none">
  <ellipse cx="100" cy="210" rx="55" ry="12" fill="#000" opacity="0.08"/>
  <!-- body -->
  <path d="M65 175c0-25 15-45 35-45s35 20 35 45v20H65v-20z" fill="#8b1538"/>
  <ellipse cx="100" cy="118" rx="48" ry="52" fill="#ffe4c9"/>
  <!-- hair -->
  <path d="M52 95c0-35 22-58 48-58s48 23 48 58c0 8-2 16-5 23-8-12-22-20-43-20s-35 8-43 20a52 52 0 01-5-23z" fill="#3d2914"/>
  <!-- face -->
  <ellipse cx="100" cy="118" rx="42" ry="46" fill="#ffe4c9"/>
  <ellipse cx="82" cy="112" rx="5" ry="6" fill="#2a2a2a"/>
  <ellipse cx="118" cy="112" rx="5" ry="6" fill="#2a2a2a"/>
  <path d="M88 128c6 8 18 8 24 0" stroke="#c97b6b" stroke-width="3" stroke-linecap="round"/>
  <!-- blush -->
  <ellipse cx="72" cy="125" rx="10" ry="6" fill="#ffb4a8" opacity="0.5"/>
  <ellipse cx="128" cy="125" rx="10" ry="6" fill="#ffb4a8" opacity="0.5"/>
  <!-- risol -->
  <ellipse cx="100" cy="168" rx="28" ry="18" fill="#e8c98f" transform="rotate(-15 100 168)"/>
  <ellipse cx="100" cy="165" rx="22" ry="12" fill="#f5d4a8" transform="rotate(-15 100 165)"/>
  <!-- bow -->
  <circle cx="100" cy="78" r="8" fill="#8b1538"/>
  <ellipse cx="88" cy="76" rx="14" ry="10" fill="#c41e3a" transform="rotate(-25 88 76)"/>
  <ellipse cx="112" cy="76" rx="14" ry="10" fill="#c41e3a" transform="rotate(25 112 76)"/>
</svg>
